<svg width="775.2" height="95.301" viewBox="0 0 775.2 95.301" xmlns="http://www.w3.org/2000/svg"><g id="svgGroup" stroke-linecap="round" fill-rule="evenodd" font-size="9pt" stroke="#000" stroke-width="0.25mm" fill="#000" style="stroke:#000;stroke-width:0.25mm;fill:#000"><path d="M 7.5 31.2 L 7.5 71.8 L 0 71.8 L 0 21.8 L 7.4 21.8 L 7.4 25.3 A 34.848 34.848 0 0 1 13.657 22.304 A 24.841 24.841 0 0 1 22 20.8 A 26.481 26.481 0 0 1 26.667 21.181 Q 32.312 22.195 35 25.9 A 26.269 26.269 0 0 1 37.749 24.463 Q 40.269 23.319 43.55 22.35 Q 47.672 21.133 51.024 20.872 A 22.852 22.852 0 0 1 52.8 20.8 Q 58.171 20.8 61.653 22.343 A 10.233 10.233 0 0 1 66.25 26.15 Q 69.007 30.426 69.561 40.163 A 92.531 92.531 0 0 1 69.7 45.4 L 69.7 71.8 L 62.2 71.8 L 62.2 45.6 A 85.207 85.207 0 0 0 62.083 40.947 Q 61.718 34.305 60.217 31.382 A 7.92 7.92 0 0 0 60.2 31.35 A 6.448 6.448 0 0 0 56.675 28.294 Q 54.652 27.5 51.7 27.5 Q 48.4 27.5 44.9 28.45 A 57.545 57.545 0 0 0 42.869 29.039 Q 41.024 29.613 39.784 30.169 A 14.894 14.894 0 0 0 39.5 30.3 L 37.6 31.2 Q 38.729 34.066 38.877 42.964 A 170.169 170.169 0 0 1 38.9 45.8 L 38.9 71.8 L 31.4 71.8 L 31.4 46 A 94.489 94.489 0 0 0 31.293 41.319 Q 30.953 34.498 29.534 31.522 A 7.947 7.947 0 0 0 29.45 31.35 A 6.286 6.286 0 0 0 26.066 28.346 Q 24.868 27.857 23.329 27.651 A 18.324 18.324 0 0 0 20.9 27.5 A 23.364 23.364 0 0 0 15.601 28.127 A 26.907 26.907 0 0 0 14.35 28.45 Q 11 29.4 9.2 30.3 L 7.5 31.2 Z" id="0" vector-effect="non-scaling-stroke"/><path d="M 118.9 36.9 L 118.9 62.5 A 4.074 4.074 0 0 0 121.279 65.939 Q 122.616 66.635 124.7 66.9 L 124.4 72.8 Q 118.979 72.8 115.394 70.916 A 11.87 11.87 0 0 1 112.5 68.8 A 46.224 46.224 0 0 1 100.687 72.327 A 40.914 40.914 0 0 1 94.5 72.8 Q 87.6 72.8 84 68.9 A 12.625 12.625 0 0 1 81.245 63.977 Q 80.664 62.094 80.483 59.833 A 26.645 26.645 0 0 1 80.4 57.7 A 22.792 22.792 0 0 1 80.726 53.705 Q 81.109 51.557 81.943 49.878 A 10.092 10.092 0 0 1 84.1 46.95 A 13.006 13.006 0 0 1 87.715 44.621 Q 90.948 43.181 95.7 42.7 L 111.4 41.2 L 111.4 36.9 A 18.655 18.655 0 0 0 111.236 34.328 Q 110.827 31.402 109.403 29.814 A 5.436 5.436 0 0 0 109.2 29.6 A 7.297 7.297 0 0 0 105.521 27.637 A 10.777 10.777 0 0 0 103.2 27.4 A 140.615 140.615 0 0 0 89.804 28.06 A 158.554 158.554 0 0 0 86.6 28.4 L 83.5 28.7 L 83.2 23 A 127.481 127.481 0 0 1 92.192 21.516 Q 96.437 20.979 100.225 20.845 A 69.933 69.933 0 0 1 102.7 20.8 A 29.352 29.352 0 0 1 107.113 21.108 Q 112.283 21.897 115.05 24.7 Q 117.966 27.654 118.673 33.131 A 29.474 29.474 0 0 1 118.9 36.9 Z M 109.1 64.2 L 111.4 63.4 L 111.4 46.9 L 96.6 48.3 Q 93.783 48.55 91.946 49.506 A 6.544 6.544 0 0 0 90.1 50.9 A 7.049 7.049 0 0 0 88.632 53.5 Q 88.283 54.573 88.163 55.874 A 15.546 15.546 0 0 0 88.1 57.3 A 16.268 16.268 0 0 0 88.426 60.715 Q 89.501 65.701 94.127 66.39 A 10.691 10.691 0 0 0 95.7 66.5 Q 102.5 66.5 109.1 64.2 Z" id="1" vector-effect="non-scaling-stroke"/><path d="M 164.7 0 L 172.1 0 L 172.1 71.8 L 164.7 71.8 L 164.7 68.4 A 35.538 35.538 0 0 1 157.555 71.549 A 27.215 27.215 0 0 1 149.5 72.8 A 27.173 27.173 0 0 1 146.191 72.609 Q 144.438 72.393 142.927 71.936 A 16.152 16.152 0 0 1 142.5 71.8 A 13.271 13.271 0 0 1 138.735 69.798 A 17.071 17.071 0 0 1 136.9 68.2 A 14.567 14.567 0 0 1 133.829 63.415 Q 131.942 58.87 131.584 51.733 A 69.594 69.594 0 0 1 131.5 48.25 A 69.512 69.512 0 0 1 131.842 41.092 Q 132.788 31.987 136.35 27.25 Q 140.57 21.638 149.598 20.909 A 34.837 34.837 0 0 1 152.4 20.8 A 58.266 58.266 0 0 1 159.923 21.308 A 71.375 71.375 0 0 1 164.7 22.1 L 164.7 0 Z M 162.7 63.3 L 164.7 62.4 L 164.7 28.5 A 72.759 72.759 0 0 0 157.969 27.546 A 56.436 56.436 0 0 0 152.8 27.3 Q 147.867 27.3 144.872 29.343 A 9.236 9.236 0 0 0 142.2 32.15 A 16.006 16.006 0 0 0 140.554 35.909 Q 139.2 40.347 139.2 47.2 Q 139.2 58.8 142.7 62.8 A 11.066 11.066 0 0 0 144.007 64.124 Q 145.017 64.979 146.1 65.4 A 9.061 9.061 0 0 0 147.666 65.84 Q 148.466 65.994 149.403 66.057 A 20.2 20.2 0 0 0 150.75 66.1 Q 153.316 66.1 156.45 65.33 A 35.309 35.309 0 0 0 157.15 65.15 A 62.766 62.766 0 0 0 159.217 64.561 Q 161.185 63.961 162.514 63.382 A 17.029 17.029 0 0 0 162.7 63.3 Z" id="2" vector-effect="non-scaling-stroke"/><path d="M 220.6 65.6 L 223.5 65.3 L 223.7 71.2 A 197.466 197.466 0 0 1 215.614 72.175 Q 211.644 72.566 208.178 72.712 A 94.358 94.358 0 0 1 204.2 72.8 Q 197.433 72.8 193.139 70.346 A 13.261 13.261 0 0 1 188.9 66.55 A 19.674 19.674 0 0 1 186.269 61.228 Q 184.586 56.168 184.419 48.766 A 73.589 73.589 0 0 1 184.4 47.1 A 48.573 48.573 0 0 1 185.262 37.501 Q 188.278 22.614 201.838 20.997 A 29.242 29.242 0 0 1 205.3 20.8 A 28.636 28.636 0 0 1 211.113 21.352 Q 214.54 22.063 217.14 23.691 A 14.87 14.87 0 0 1 220.4 26.45 A 17.141 17.141 0 0 1 223.614 32.041 Q 224.549 34.62 224.994 37.831 A 46.48 46.48 0 0 1 225.4 44.2 L 225 49.9 L 192 49.9 A 36.747 36.747 0 0 0 192.237 54.229 Q 192.794 58.911 194.66 61.718 A 10.346 10.346 0 0 0 195 62.2 Q 197.391 65.388 202.607 66.035 A 23.118 23.118 0 0 0 205.45 66.2 Q 212.9 66.2 220.6 65.6 Z M 191.9 43.9 L 217.9 43.9 Q 217.9 36.427 215.953 32.517 A 9.614 9.614 0 0 0 214.95 30.9 Q 212 27.1 205.35 27.1 A 17.563 17.563 0 0 0 201.428 27.51 Q 197.627 28.381 195.35 31.1 A 12.206 12.206 0 0 0 193.311 34.73 Q 192.053 38.124 191.914 43.173 A 45.31 45.31 0 0 0 191.9 43.9 Z" id="3" vector-effect="non-scaling-stroke"/><path d="M 266.9 71.8 L 255 21.8 L 262.5 21.8 L 272.6 65.3 L 274.2 65.3 L 286.1 22.8 L 293.9 22.8 L 305.8 65.3 L 307.5 65.3 L 317.5 21.8 L 325 21.8 L 313.1 71.8 L 300.6 71.8 L 290 32.7 L 279.4 71.8 L 266.9 71.8 Z" id="5" vector-effect="non-scaling-stroke"/><path d="M 342.8 71.8 L 335.3 71.8 L 335.3 21.8 L 342.8 21.8 L 342.8 71.8 Z M 342.8 10.5 L 335.3 10.5 L 335.3 1.8 L 342.8 1.8 L 342.8 10.5 Z" id="6" vector-effect="non-scaling-stroke"/><path d="M 383.1 21.8 L 383.1 28.3 L 367.2 28.3 L 367.2 52.2 Q 367.2 59.949 368.215 62.908 A 6.202 6.202 0 0 0 368.45 63.5 A 4.111 4.111 0 0 0 370.656 65.567 Q 372.123 66.2 374.4 66.2 L 383.3 65.6 L 383.8 71.8 Q 378.327 72.699 374.989 72.863 A 28.338 28.338 0 0 1 373.6 72.9 A 25.018 25.018 0 0 1 369.82 72.636 Q 365.066 71.907 362.852 69.165 A 7.659 7.659 0 0 1 362.8 69.1 Q 359.8 65.3 359.8 54.6 L 359.8 28.3 L 352.7 28.3 L 352.7 21.8 L 359.8 21.8 L 359.8 6.5 L 367.2 6.5 L 367.2 21.8 L 383.1 21.8 Z" id="7" vector-effect="non-scaling-stroke"/><path d="M 399.8 30.5 L 399.8 71.8 L 392.3 71.8 L 392.3 0 L 399.8 0 L 399.8 24.6 A 41.927 41.927 0 0 1 407.168 21.872 A 31.668 31.668 0 0 1 415.2 20.8 Q 420.571 20.8 424.053 22.358 A 10.256 10.256 0 0 1 428.65 26.2 A 15.967 15.967 0 0 1 430.356 30.024 Q 431.622 34.063 431.969 40.337 A 91.908 91.908 0 0 1 432.1 45.4 L 432.1 71.8 L 424.6 71.8 L 424.6 45.6 A 83.133 83.133 0 0 0 424.48 40.947 Q 424.104 34.268 422.55 31.35 A 6.523 6.523 0 0 0 419.088 28.346 Q 417.861 27.85 416.291 27.645 A 18.484 18.484 0 0 0 413.9 27.5 Q 407.6 27.5 401.7 29.8 L 399.8 30.5 Z" id="8" vector-effect="non-scaling-stroke"/><path d="M 503.3 36.9 L 503.3 62.5 A 4.074 4.074 0 0 0 505.679 65.939 Q 507.016 66.635 509.1 66.9 L 508.8 72.8 Q 503.379 72.8 499.794 70.916 A 11.87 11.87 0 0 1 496.9 68.8 A 46.224 46.224 0 0 1 485.087 72.327 A 40.914 40.914 0 0 1 478.9 72.8 Q 472 72.8 468.4 68.9 A 12.625 12.625 0 0 1 465.645 63.977 Q 465.064 62.094 464.883 59.833 A 26.645 26.645 0 0 1 464.8 57.7 A 22.792 22.792 0 0 1 465.126 53.705 Q 465.509 51.557 466.343 49.878 A 10.092 10.092 0 0 1 468.5 46.95 A 13.006 13.006 0 0 1 472.115 44.621 Q 475.348 43.181 480.1 42.7 L 495.8 41.2 L 495.8 36.9 A 18.655 18.655 0 0 0 495.636 34.328 Q 495.227 31.402 493.803 29.814 A 5.436 5.436 0 0 0 493.6 29.6 A 7.297 7.297 0 0 0 489.921 27.637 A 10.777 10.777 0 0 0 487.6 27.4 A 140.615 140.615 0 0 0 474.204 28.06 A 158.554 158.554 0 0 0 471 28.4 L 467.9 28.7 L 467.6 23 A 127.481 127.481 0 0 1 476.592 21.516 Q 480.837 20.979 484.625 20.845 A 69.933 69.933 0 0 1 487.1 20.8 A 29.352 29.352 0 0 1 491.513 21.108 Q 496.683 21.897 499.45 24.7 Q 502.366 27.654 503.073 33.131 A 29.474 29.474 0 0 1 503.3 36.9 Z M 493.5 64.2 L 495.8 63.4 L 495.8 46.9 L 481 48.3 Q 478.183 48.55 476.346 49.506 A 6.544 6.544 0 0 0 474.5 50.9 A 7.049 7.049 0 0 0 473.032 53.5 Q 472.683 54.573 472.563 55.874 A 15.546 15.546 0 0 0 472.5 57.3 A 16.268 16.268 0 0 0 472.826 60.715 Q 473.901 65.701 478.527 66.39 A 10.691 10.691 0 0 0 480.1 66.5 Q 486.9 66.5 493.5 64.2 Z" id="10" vector-effect="non-scaling-stroke"/><path d="M 525.6 31.2 L 525.6 71.8 L 518.1 71.8 L 518.1 21.8 L 525.5 21.8 L 525.5 25.3 Q 533.6 20.8 541 20.8 Q 546.371 20.8 549.853 22.358 A 10.256 10.256 0 0 1 554.45 26.2 A 15.967 15.967 0 0 1 556.156 30.024 Q 557.422 34.063 557.769 40.337 A 91.908 91.908 0 0 1 557.9 45.4 L 557.9 71.8 L 550.5 71.8 L 550.5 45.6 A 83.133 83.133 0 0 0 550.38 40.947 Q 550.004 34.268 548.45 31.35 A 6.494 6.494 0 0 0 545.032 28.375 Q 542.895 27.5 539.7 27.5 A 24.168 24.168 0 0 0 535.563 27.871 A 29.913 29.913 0 0 0 532.95 28.45 Q 529.4 29.4 527.5 30.3 L 525.6 31.2 Z" id="11" vector-effect="non-scaling-stroke"/><path d="M 577.2 54.6 L 578.1 53 Q 570.674 49.616 570.228 39.253 A 31.473 31.473 0 0 1 570.2 37.9 Q 570.2 20.919 588.642 20.801 A 40.481 40.481 0 0 1 588.9 20.8 A 40.504 40.504 0 0 1 594.49 21.171 A 33.434 33.434 0 0 1 597.8 21.8 L 599.3 22.1 L 614.1 21.7 L 614.1 28.1 L 604.6 27.9 A 10.271 10.271 0 0 1 607.023 31.895 Q 607.571 33.489 607.777 35.436 A 23.485 23.485 0 0 1 607.9 37.9 A 29.832 29.832 0 0 1 607.572 42.495 Q 607.203 44.852 606.421 46.706 A 10.893 10.893 0 0 1 603.25 51.05 A 14.193 14.193 0 0 1 599.023 53.331 Q 595.128 54.705 589.398 54.794 A 51.628 51.628 0 0 1 588.6 54.8 Q 585.9 54.8 583.7 54.4 A 73.768 73.768 0 0 0 583.088 55.941 Q 582.174 58.328 581.963 59.504 A 3.472 3.472 0 0 0 581.9 60.1 A 7.722 7.722 0 0 0 582.004 61.424 Q 582.124 62.11 582.382 62.626 A 2.626 2.626 0 0 0 583.8 63.95 A 5.783 5.783 0 0 0 584.89 64.224 Q 587.604 64.692 595.047 64.7 A 241.689 241.689 0 0 0 595.3 64.7 A 48.773 48.773 0 0 1 600.019 64.912 Q 606.016 65.497 609.1 67.7 A 8.531 8.531 0 0 1 611.896 71.246 Q 613.187 74.119 613.291 78.602 A 34.424 34.424 0 0 1 613.3 79.4 A 15.839 15.839 0 0 1 611.568 87.041 Q 608.03 93.58 597.265 94.942 A 49.279 49.279 0 0 1 591.1 95.3 Q 581.707 95.3 576.756 93.309 A 12.531 12.531 0 0 1 574.35 92.05 A 9.838 9.838 0 0 1 570.751 87.37 Q 569.6 84.433 569.6 80.2 A 15.302 15.302 0 0 1 569.832 77.453 Q 570.247 75.184 571.4 73.55 Q 573.026 71.247 576.692 68.413 A 55.424 55.424 0 0 1 577.5 67.8 Q 575.23 66.259 574.8 62.681 A 14.967 14.967 0 0 1 574.7 60.9 A 4.098 4.098 0 0 1 574.837 59.944 Q 575.21 58.429 576.597 55.738 A 58.594 58.594 0 0 1 577.2 54.6 Z M 593.4 71.3 L 582.6 70.8 A 34.14 34.14 0 0 0 580.914 72.103 Q 578.977 73.706 578.15 75 Q 577.109 76.63 577.01 79.079 A 12.963 12.963 0 0 0 577 79.6 A 14.907 14.907 0 0 0 577.208 82.186 Q 577.455 83.586 577.996 84.663 A 6.018 6.018 0 0 0 579.95 86.95 Q 582.9 89 590.85 89 Q 597.431 89 600.928 87.493 A 9.305 9.305 0 0 0 602.25 86.8 Q 605.696 84.603 605.7 79.462 A 15.043 15.043 0 0 0 605.7 79.45 A 16.441 16.441 0 0 0 605.563 77.236 Q 605.114 73.948 603.2 72.8 A 7.098 7.098 0 0 0 601.563 72.118 Q 598.91 71.335 593.862 71.302 A 68.836 68.836 0 0 0 593.4 71.3 Z M 577.7 37.9 Q 577.7 43.8 580.35 46.3 A 7.733 7.733 0 0 0 582.916 47.86 Q 585.204 48.74 588.63 48.796 A 28.8 28.8 0 0 0 589.1 48.8 A 23.578 23.578 0 0 0 592.094 48.624 Q 595.891 48.136 597.8 46.3 A 7.23 7.23 0 0 0 599.477 43.715 Q 600.342 41.539 600.396 38.288 A 26.363 26.363 0 0 0 600.4 37.85 A 21.532 21.532 0 0 0 600.217 34.932 Q 599.752 31.547 598.111 29.722 A 6.162 6.162 0 0 0 597.8 29.4 Q 595.316 27.012 589.639 26.905 A 28.64 28.64 0 0 0 589.1 26.9 A 23.046 23.046 0 0 0 586.022 27.091 Q 582.588 27.555 580.684 29.15 A 6.523 6.523 0 0 0 580.35 29.45 Q 577.7 32 577.7 37.9 Z" id="12" vector-effect="non-scaling-stroke"/><path d="M 654.4 62.4 L 654.4 21.8 L 661.9 21.8 L 661.9 71.8 L 654.4 71.8 L 654.4 68.3 A 34.175 34.175 0 0 1 647.876 71.376 A 25.486 25.486 0 0 1 639.6 72.8 A 30.397 30.397 0 0 1 634.928 72.469 Q 628.938 71.534 626.36 67.958 A 9.055 9.055 0 0 1 626.05 67.5 A 15.293 15.293 0 0 1 624.449 63.868 Q 622.7 58.234 622.7 47.9 L 622.7 21.8 L 630.2 21.8 L 630.2 47.8 A 98.126 98.126 0 0 0 630.304 52.514 Q 630.628 59.213 631.957 62.105 A 7.502 7.502 0 0 0 632.1 62.4 Q 633.547 65.218 637.78 65.89 A 18.704 18.704 0 0 0 640.7 66.1 A 24.489 24.489 0 0 0 646.552 65.373 A 27.558 27.558 0 0 0 647.4 65.15 Q 650.8 64.2 652.6 63.3 L 654.4 62.4 Z" id="13" vector-effect="non-scaling-stroke"/><path d="M 684.4 71.8 L 676.9 71.8 L 676.9 0 L 684.4 0 L 684.4 71.8 Z" id="14" vector-effect="non-scaling-stroke"/><path d="M 734.7 36.9 L 734.7 62.5 A 4.074 4.074 0 0 0 737.079 65.939 Q 738.416 66.635 740.5 66.9 L 740.2 72.8 Q 734.779 72.8 731.194 70.916 A 11.87 11.87 0 0 1 728.3 68.8 A 46.224 46.224 0 0 1 716.487 72.327 A 40.914 40.914 0 0 1 710.3 72.8 Q 703.4 72.8 699.8 68.9 A 12.625 12.625 0 0 1 697.045 63.977 Q 696.464 62.094 696.283 59.833 A 26.645 26.645 0 0 1 696.2 57.7 A 22.792 22.792 0 0 1 696.526 53.705 Q 696.909 51.557 697.743 49.878 A 10.092 10.092 0 0 1 699.9 46.95 A 13.006 13.006 0 0 1 703.515 44.621 Q 706.748 43.181 711.5 42.7 L 727.2 41.2 L 727.2 36.9 A 18.655 18.655 0 0 0 727.036 34.328 Q 726.627 31.402 725.203 29.814 A 5.436 5.436 0 0 0 725 29.6 A 7.297 7.297 0 0 0 721.321 27.637 A 10.777 10.777 0 0 0 719 27.4 A 140.615 140.615 0 0 0 705.604 28.06 A 158.554 158.554 0 0 0 702.4 28.4 L 699.3 28.7 L 699 23 A 127.481 127.481 0 0 1 707.992 21.516 Q 712.237 20.979 716.025 20.845 A 69.933 69.933 0 0 1 718.5 20.8 A 29.352 29.352 0 0 1 722.913 21.108 Q 728.083 21.897 730.85 24.7 Q 733.766 27.654 734.473 33.131 A 29.474 29.474 0 0 1 734.7 36.9 Z M 724.9 64.2 L 727.2 63.4 L 727.2 46.9 L 712.4 48.3 Q 709.583 48.55 707.746 49.506 A 6.544 6.544 0 0 0 705.9 50.9 A 7.049 7.049 0 0 0 704.432 53.5 Q 704.083 54.573 703.963 55.874 A 15.546 15.546 0 0 0 703.9 57.3 A 16.268 16.268 0 0 0 704.226 60.715 Q 705.301 65.701 709.927 66.39 A 10.691 10.691 0 0 0 711.5 66.5 Q 718.3 66.5 724.9 64.2 Z" id="15" vector-effect="non-scaling-stroke"/><path d="M 757 71.8 L 749.5 71.8 L 749.5 21.8 L 756.9 21.8 L 756.9 28.6 A 50.347 50.347 0 0 1 769.871 22.093 A 45.76 45.76 0 0 1 775.2 20.7 L 775.2 28.3 A 50.433 50.433 0 0 0 769.537 29.738 A 61.18 61.18 0 0 0 766.45 30.8 Q 762.7 32.201 760.41 33.331 A 26.916 26.916 0 0 0 759.5 33.8 L 757 35.1 L 757 71.8 Z" id="16" vector-effect="non-scaling-stroke"/></g></svg>